<svg t="1687889853099" class="icon" viewBox="0 0 1024 1024" version="1.1" xmlns="http://www.w3.org/2000/svg" p-id="3806" width="200" height="200"><path d="M721.066667 674.133333H302.933333c-25.6 0-42.666667-17.066667-42.666666-42.666666s17.066667-42.666667 42.666666-42.666667h418.133334c25.6 0 42.666667 17.066667 42.666666 42.666667s-17.066667 42.666667-42.666666 42.666666zM721.066667 819.2H302.933333c-25.6 0-42.666667-17.066667-42.666666-42.666667s17.066667-42.666667 42.666666-42.666666h418.133334c25.6 0 42.666667 17.066667 42.666666 42.666666s-17.066667 42.666667-42.666666 42.666667zM503.466667 499.2c-25.6 0-42.666667-17.066667-42.666667-42.666667v-25.6c0-29.866667-21.333333-51.2-51.2-51.2h-12.8c-29.866667 0-55.466667 21.333333-55.466667 51.2v25.6c0 25.6-17.066667 42.666667-42.666666 42.666667s-42.666667-17.066667-42.666667-42.666667v-25.6c0-76.8 59.733333-136.533333 136.533333-136.533333h12.8c76.8 0 136.533333 59.733333 136.533334 136.533333v25.6c4.266667 25.6-12.8 42.666667-38.4 42.666667z" fill="#13227a" p-id="3807"></path><path d="M396.8 332.8C341.333333 332.8 298.666667 285.866667 298.666667 230.4s42.666667-98.133333 98.133333-98.133333 98.133333 46.933333 98.133333 98.133333-42.666667 102.4-98.133333 102.4z m0-115.2c-8.533333 0-12.8 4.266667-12.8 12.8 0 8.533333 8.533333 12.8 12.8 12.8s12.8-8.533333 12.8-12.8c4.266667-8.533333-4.266667-12.8-12.8-12.8z" fill="#13227a" p-id="3808"></path><path d="M942.933333 307.2c0-12.8-4.266667-21.333333-12.8-29.866667L648.533333 12.8c-8.533333-8.533333-17.066667-12.8-25.6-12.8H119.466667c-25.6 0-42.666667 17.066667-42.666667 42.666667v938.666666c0 25.6 17.066667 42.666667 42.666667 42.666667h780.8c25.6 0 42.666667-17.066667 42.666666-42.666667V307.2c4.266667 0 0 0 0 0z m-277.333333-166.4l128 119.466667h-128V140.8zM162.133333 938.666667V85.333333h413.866667v221.866667c0 12.8 4.266667 21.333333 12.8 29.866667 8.533333 8.533333 17.066667 12.8 29.866667 12.8h238.933333V938.666667H162.133333z" fill="#13227a" p-id="3809"></path></svg>